<svg width="1259" height="373" viewBox="0 0 1259 373" fill="none" xmlns="http://www.w3.org/2000/svg">
<circle cx="716.305" cy="186.471" r="158.179" fill="#265073"/>
<path d="M781.892 160.751C781.892 158.62 783.619 156.893 785.75 156.893H807.612C809.743 156.893 811.47 158.62 811.47 160.751V246.913H781.892V160.751Z" fill="#9AD0C2"/>
<path d="M623.713 160.751C623.713 158.62 625.44 156.893 627.571 156.893H649.433C651.564 156.893 653.291 158.62 653.291 160.751V246.913H623.713V160.751Z" fill="#9AD0C2"/>
<path d="M352.729 126.285V246H328.178L280.538 176.906H279.778V246H250.843V126.285H275.744L322.859 195.261H323.853V126.285H352.729ZM432.144 207.244V156.213H460.67V246H433.43V229.282H432.495C430.508 234.777 427.117 239.141 422.324 242.376C417.57 245.571 411.821 247.169 405.08 247.169C398.961 247.169 393.584 245.766 388.946 242.96C384.309 240.155 380.704 236.238 378.132 231.211C375.56 226.145 374.254 220.221 374.216 213.441V156.213H402.8V207.829C402.839 212.7 404.125 216.539 406.658 219.345C409.191 222.15 412.64 223.553 417.004 223.553C419.849 223.553 422.402 222.93 424.662 221.683C426.961 220.397 428.773 218.546 430.098 216.13C431.462 213.674 432.144 210.713 432.144 207.244ZM532.837 156.213V177.257H476.194V156.213H532.837ZM488.06 134.702H516.645V217.766C516.645 219.52 516.918 220.942 517.463 222.034C518.048 223.086 518.886 223.846 519.977 224.313C521.068 224.742 522.373 224.956 523.893 224.956C524.984 224.956 526.134 224.859 527.342 224.664C528.589 224.43 529.524 224.235 530.148 224.079L534.474 244.714C533.11 245.104 531.181 245.591 528.686 246.175C526.231 246.76 523.289 247.13 519.86 247.286C513.157 247.598 507.409 246.818 502.616 244.948C497.861 243.038 494.218 240.077 491.685 236.063C489.191 232.049 487.982 227.002 488.06 220.923V134.702ZM550.713 246V156.213H578.479V172.581H579.415C581.052 166.657 583.721 162.254 587.423 159.37C591.125 156.447 595.431 154.986 600.342 154.986C601.667 154.986 603.031 155.083 604.433 155.278C605.836 155.434 607.142 155.687 608.35 156.038V180.881C606.986 180.414 605.193 180.043 602.972 179.771C600.79 179.498 598.841 179.362 597.127 179.362C593.736 179.362 590.677 180.121 587.949 181.641C585.26 183.122 583.136 185.207 581.578 187.896C580.058 190.546 579.298 193.663 579.298 197.249V246H550.713ZM689.128 126.285L715.9 213.967H716.894L743.666 126.285H776.05L735.658 246H697.136L656.744 126.285H689.128ZM917.987 156.213L887.181 246H854.446L823.699 156.213H853.803L870.346 218.059H871.281L887.883 156.213H917.987ZM955.139 247.52C949.41 247.52 944.325 246.565 939.882 244.656C935.479 242.707 931.991 239.784 929.419 235.887C926.886 231.951 925.619 227.022 925.619 221.098C925.619 216.11 926.496 211.901 928.25 208.472C930.003 205.043 932.419 202.256 935.498 200.113C938.577 197.97 942.123 196.352 946.137 195.261C950.151 194.131 954.437 193.371 958.997 192.981C964.102 192.514 968.213 192.027 971.331 191.52C974.448 190.975 976.709 190.215 978.112 189.24C979.554 188.227 980.274 186.805 980.274 184.973V184.681C980.274 181.68 979.242 179.362 977.176 177.725C975.111 176.088 972.325 175.27 968.817 175.27C965.037 175.27 961.998 176.088 959.698 177.725C957.399 179.362 955.938 181.622 955.314 184.506L928.951 183.57C929.731 178.114 931.737 173.243 934.972 168.957C938.245 164.631 942.727 161.241 948.417 158.785C954.145 156.291 961.023 155.044 969.051 155.044C974.78 155.044 980.06 155.726 984.892 157.09C989.725 158.415 993.933 160.364 997.519 162.936C1001.1 165.469 1003.87 168.586 1005.82 172.288C1007.81 175.991 1008.8 180.219 1008.8 184.973V246H981.911V233.491H981.21C979.612 236.53 977.566 239.102 975.072 241.207C972.617 243.311 969.714 244.889 966.362 245.942C963.05 246.994 959.309 247.52 955.139 247.52ZM963.966 228.814C967.044 228.814 969.811 228.191 972.266 226.944C974.76 225.697 976.748 223.982 978.229 221.8C979.709 219.578 980.45 217.006 980.45 214.084V205.549C979.631 205.978 978.638 206.368 977.469 206.718C976.339 207.069 975.091 207.4 973.728 207.712C972.364 208.024 970.961 208.297 969.519 208.53C968.077 208.764 966.693 208.979 965.368 209.173C962.68 209.602 960.38 210.265 958.471 211.161C956.6 212.057 955.158 213.226 954.145 214.668C953.171 216.071 952.684 217.747 952.684 219.695C952.684 222.657 953.736 224.917 955.84 226.476C957.984 228.035 960.692 228.814 963.966 228.814Z" fill="#9AD0C2"/>
</svg>
